<mxfile host="app.diagrams.net" modified="2022-11-15T13:44:26.119Z" agent="5.0 (Windows NT 10.0; Win64; x64) AppleWebKit/537.36 (KHTML, like Gecko) Chrome/107.0.0.0 Safari/537.36" etag="ow1mW8Aqx3OkehFwA1sp" version="20.0.4" type="github">
  <diagram name="Page-1" id="929967ad-93f9-6ef4-fab6-5d389245f69c">
    <mxGraphModel dx="1038" dy="579" grid="1" gridSize="10" guides="1" tooltips="1" connect="1" arrows="1" fold="1" page="1" pageScale="1.5" pageWidth="1169" pageHeight="826" background="none" math="0" shadow="0">
      <root>
        <mxCell id="0" style=";html=1;" />
        <mxCell id="1" style=";html=1;" parent="0" />
        <mxCell id="2fEYxKYu0VI1hJ5wH61g-1" value="Brand" style="swimlane;fontStyle=1;align=center;verticalAlign=top;childLayout=stackLayout;horizontal=1;startSize=26;horizontalStack=0;resizeParent=1;resizeParentMax=0;resizeLast=0;collapsible=1;marginBottom=0;" vertex="1" parent="1">
          <mxGeometry x="480" y="140" width="250" height="180" as="geometry" />
        </mxCell>
        <mxCell id="2fEYxKYu0VI1hJ5wH61g-2" value="+ brandName:String&#xa;&#xa;+ brandId:Int" style="text;strokeColor=none;fillColor=none;align=left;verticalAlign=top;spacingLeft=4;spacingRight=4;overflow=hidden;rotatable=0;points=[[0,0.5],[1,0.5]];portConstraint=eastwest;fontSize=14;" vertex="1" parent="2fEYxKYu0VI1hJ5wH61g-1">
          <mxGeometry y="26" width="250" height="64" as="geometry" />
        </mxCell>
        <mxCell id="2fEYxKYu0VI1hJ5wH61g-3" value="" style="line;strokeWidth=1;fillColor=none;align=left;verticalAlign=middle;spacingTop=-1;spacingLeft=3;spacingRight=3;rotatable=0;labelPosition=right;points=[];portConstraint=eastwest;" vertex="1" parent="2fEYxKYu0VI1hJ5wH61g-1">
          <mxGeometry y="90" width="250" height="8" as="geometry" />
        </mxCell>
        <mxCell id="2fEYxKYu0VI1hJ5wH61g-4" value="+ showBrands: void&#xa;+ getbrandsname:String&#xa;+ setbrandname(brandname:String):void&#xa;+ getbrandId: Int&#xa;+ setbrandId(brandId:Int):void" style="text;strokeColor=none;fillColor=none;align=left;verticalAlign=top;spacingLeft=4;spacingRight=4;overflow=hidden;rotatable=0;points=[[0,0.5],[1,0.5]];portConstraint=eastwest;" vertex="1" parent="2fEYxKYu0VI1hJ5wH61g-1">
          <mxGeometry y="98" width="250" height="82" as="geometry" />
        </mxCell>
        <mxCell id="2fEYxKYu0VI1hJ5wH61g-5" value="Extends" style="endArrow=block;endSize=16;endFill=0;html=1;rounded=0;fontSize=14;exitX=0.45;exitY=0;exitDx=0;exitDy=0;exitPerimeter=0;entryX=0.453;entryY=1.041;entryDx=0;entryDy=0;entryPerimeter=0;" edge="1" parent="1" source="2fEYxKYu0VI1hJ5wH61g-6" target="2fEYxKYu0VI1hJ5wH61g-4">
          <mxGeometry width="160" relative="1" as="geometry">
            <mxPoint x="604" y="390" as="sourcePoint" />
            <mxPoint x="570" y="330" as="targetPoint" />
          </mxGeometry>
        </mxCell>
        <mxCell id="2fEYxKYu0VI1hJ5wH61g-6" value="&lt;&lt;Abstract&gt;&gt;&#xa;productFeature" style="swimlane;fontStyle=1;align=center;verticalAlign=top;childLayout=stackLayout;horizontal=1;startSize=26;horizontalStack=0;resizeParent=1;resizeParentMax=0;resizeLast=0;collapsible=1;marginBottom=0;fontSize=12;" vertex="1" parent="1">
          <mxGeometry x="510" y="420" width="200" height="270" as="geometry">
            <mxRectangle x="510" y="400" width="140" height="50" as="alternateBounds" />
          </mxGeometry>
        </mxCell>
        <mxCell id="2fEYxKYu0VI1hJ5wH61g-7" value="+ productId: Int&#xa;+ product name : String&#xa;+ productUnÄ±tPrice: Int&#xa;+ productDiscountRatio: Int&#xa;+ productStockQuantity: Int" style="text;strokeColor=none;fillColor=none;align=left;verticalAlign=top;spacingLeft=4;spacingRight=4;overflow=hidden;rotatable=0;points=[[0,0.5],[1,0.5]];portConstraint=eastwest;fontSize=14;" vertex="1" parent="2fEYxKYu0VI1hJ5wH61g-6">
          <mxGeometry y="26" width="200" height="114" as="geometry" />
        </mxCell>
        <mxCell id="2fEYxKYu0VI1hJ5wH61g-8" value="" style="line;strokeWidth=1;fillColor=none;align=left;verticalAlign=middle;spacingTop=-1;spacingLeft=3;spacingRight=3;rotatable=0;labelPosition=right;points=[];portConstraint=eastwest;fontSize=14;" vertex="1" parent="2fEYxKYu0VI1hJ5wH61g-6">
          <mxGeometry y="140" width="200" height="8" as="geometry" />
        </mxCell>
        <mxCell id="2fEYxKYu0VI1hJ5wH61g-9" value="+ menu: void&#xa;+ addProduct: void&#xa;+ Search: void&#xa;+ Delete: void" style="text;strokeColor=none;fillColor=none;align=left;verticalAlign=top;spacingLeft=4;spacingRight=4;overflow=hidden;rotatable=0;points=[[0,0.5],[1,0.5]];portConstraint=eastwest;fontSize=14;" vertex="1" parent="2fEYxKYu0VI1hJ5wH61g-6">
          <mxGeometry y="148" width="200" height="122" as="geometry" />
        </mxCell>
        <mxCell id="2fEYxKYu0VI1hJ5wH61g-11" value="Extends" style="endArrow=block;endSize=16;endFill=0;html=1;rounded=0;fontSize=12;" edge="1" parent="1">
          <mxGeometry width="160" relative="1" as="geometry">
            <mxPoint x="370" y="555" as="sourcePoint" />
            <mxPoint x="510" y="554.5" as="targetPoint" />
          </mxGeometry>
        </mxCell>
        <mxCell id="2fEYxKYu0VI1hJ5wH61g-12" value="notebook" style="swimlane;fontStyle=1;align=center;verticalAlign=top;childLayout=stackLayout;horizontal=1;startSize=26;horizontalStack=0;resizeParent=1;resizeParentMax=0;resizeLast=0;collapsible=1;marginBottom=0;fontSize=12;" vertex="1" parent="1">
          <mxGeometry x="170" y="440" width="210" height="260" as="geometry" />
        </mxCell>
        <mxCell id="2fEYxKYu0VI1hJ5wH61g-13" value="+ notebookNumberIdControl: Int&#xa;+ Ram : Int&#xa;+ Storage: Int&#xa;+ ScreenSize :Double" style="text;strokeColor=none;fillColor=none;align=left;verticalAlign=top;spacingLeft=4;spacingRight=4;overflow=hidden;rotatable=0;points=[[0,0.5],[1,0.5]];portConstraint=eastwest;fontSize=12;" vertex="1" parent="2fEYxKYu0VI1hJ5wH61g-12">
          <mxGeometry y="26" width="210" height="64" as="geometry" />
        </mxCell>
        <mxCell id="2fEYxKYu0VI1hJ5wH61g-14" value="" style="line;strokeWidth=1;fillColor=none;align=left;verticalAlign=middle;spacingTop=-1;spacingLeft=3;spacingRight=3;rotatable=0;labelPosition=right;points=[];portConstraint=eastwest;fontSize=12;" vertex="1" parent="2fEYxKYu0VI1hJ5wH61g-12">
          <mxGeometry y="90" width="210" height="8" as="geometry" />
        </mxCell>
        <mxCell id="2fEYxKYu0VI1hJ5wH61g-15" value="+ control (control:Int) : void&#xa;+ show :void&#xa;+ getRam :Int&#xa;+ setRam(ram:Int):void&#xa;+ getstorage :Int&#xa;+ setstorage (storage:Int): void&#xa;+ getscreensize : double&#xa;+ setscreensize(screensize:double):void" style="text;strokeColor=none;fillColor=none;align=left;verticalAlign=top;spacingLeft=4;spacingRight=4;overflow=hidden;rotatable=0;points=[[0,0.5],[1,0.5]];portConstraint=eastwest;fontSize=12;" vertex="1" parent="2fEYxKYu0VI1hJ5wH61g-12">
          <mxGeometry y="98" width="210" height="162" as="geometry" />
        </mxCell>
        <mxCell id="2fEYxKYu0VI1hJ5wH61g-16" value="Extends" style="endArrow=block;endSize=16;endFill=0;html=1;rounded=0;fontSize=12;entryX=1.02;entryY=0.991;entryDx=0;entryDy=0;entryPerimeter=0;" edge="1" parent="1" target="2fEYxKYu0VI1hJ5wH61g-7">
          <mxGeometry width="160" relative="1" as="geometry">
            <mxPoint x="820" y="560" as="sourcePoint" />
            <mxPoint x="910" y="520" as="targetPoint" />
          </mxGeometry>
        </mxCell>
        <mxCell id="2fEYxKYu0VI1hJ5wH61g-17" value="telephone" style="swimlane;fontStyle=1;align=center;verticalAlign=top;childLayout=stackLayout;horizontal=1;startSize=26;horizontalStack=0;resizeParent=1;resizeParentMax=0;resizeLast=0;collapsible=1;marginBottom=0;fontSize=12;" vertex="1" parent="1">
          <mxGeometry x="820" y="430" width="230" height="290" as="geometry" />
        </mxCell>
        <mxCell id="2fEYxKYu0VI1hJ5wH61g-18" value="+ telephoneNumberIdControl: Int&#xa;+ telephoneMemory : Int&#xa;+ Ram: Int&#xa;+ ScreenSize :Double&#xa;+ batterypower : Int&#xa;+ telephoneColour : String" style="text;strokeColor=none;fillColor=none;align=left;verticalAlign=top;spacingLeft=4;spacingRight=4;overflow=hidden;rotatable=0;points=[[0,0.5],[1,0.5]];portConstraint=eastwest;fontSize=12;" vertex="1" parent="2fEYxKYu0VI1hJ5wH61g-17">
          <mxGeometry y="26" width="230" height="94" as="geometry" />
        </mxCell>
        <mxCell id="2fEYxKYu0VI1hJ5wH61g-19" value="" style="line;strokeWidth=1;fillColor=none;align=left;verticalAlign=middle;spacingTop=-1;spacingLeft=3;spacingRight=3;rotatable=0;labelPosition=right;points=[];portConstraint=eastwest;fontSize=12;" vertex="1" parent="2fEYxKYu0VI1hJ5wH61g-17">
          <mxGeometry y="120" width="230" height="8" as="geometry" />
        </mxCell>
        <mxCell id="2fEYxKYu0VI1hJ5wH61g-20" value="+ control (control:Int) : void&#xa;+ show :void&#xa;+ getRam :Int&#xa;+ setRam(ram:Int):void&#xa;+ gettelephonememory :Int&#xa;+ settelephonememory (storage:Int): void&#xa;+ getscreensize : double&#xa;+ setscreensize(screensize:double):void&#xa;+ getbatterypower : Int&#xa;+ setbatterypower(baterypower:Int) :void" style="text;strokeColor=none;fillColor=none;align=left;verticalAlign=top;spacingLeft=4;spacingRight=4;overflow=hidden;rotatable=0;points=[[0,0.5],[1,0.5]];portConstraint=eastwest;fontSize=12;" vertex="1" parent="2fEYxKYu0VI1hJ5wH61g-17">
          <mxGeometry y="128" width="230" height="162" as="geometry" />
        </mxCell>
        <mxCell id="2fEYxKYu0VI1hJ5wH61g-21" value="store" style="swimlane;fontStyle=1;align=center;verticalAlign=top;childLayout=stackLayout;horizontal=1;startSize=26;horizontalStack=0;resizeParent=1;resizeParentMax=0;resizeLast=0;collapsible=1;marginBottom=0;fontSize=12;" vertex="1" parent="1">
          <mxGeometry x="420" y="760" width="240" height="60" as="geometry" />
        </mxCell>
        <mxCell id="2fEYxKYu0VI1hJ5wH61g-22" value="+ number :Int" style="text;strokeColor=none;fillColor=none;align=left;verticalAlign=top;spacingLeft=4;spacingRight=4;overflow=hidden;rotatable=0;points=[[0,0.5],[1,0.5]];portConstraint=eastwest;fontSize=12;" vertex="1" parent="2fEYxKYu0VI1hJ5wH61g-21">
          <mxGeometry y="26" width="240" height="26" as="geometry" />
        </mxCell>
        <mxCell id="2fEYxKYu0VI1hJ5wH61g-23" value="" style="line;strokeWidth=1;fillColor=none;align=left;verticalAlign=middle;spacingTop=-1;spacingLeft=3;spacingRight=3;rotatable=0;labelPosition=right;points=[];portConstraint=eastwest;fontSize=12;" vertex="1" parent="2fEYxKYu0VI1hJ5wH61g-21">
          <mxGeometry y="52" width="240" height="8" as="geometry" />
        </mxCell>
        <mxCell id="2fEYxKYu0VI1hJ5wH61g-26" value="Use" style="endArrow=open;endSize=12;dashed=1;html=1;rounded=0;fontSize=12;exitX=0.457;exitY=-0.005;exitDx=0;exitDy=0;exitPerimeter=0;entryX=1.003;entryY=-0.046;entryDx=0;entryDy=0;entryPerimeter=0;" edge="1" parent="1" source="2fEYxKYu0VI1hJ5wH61g-17" target="2fEYxKYu0VI1hJ5wH61g-4">
          <mxGeometry width="160" relative="1" as="geometry">
            <mxPoint x="855" y="360" as="sourcePoint" />
            <mxPoint x="1015" y="360" as="targetPoint" />
          </mxGeometry>
        </mxCell>
        <mxCell id="2fEYxKYu0VI1hJ5wH61g-27" value="Use" style="endArrow=open;endSize=12;dashed=1;html=1;rounded=0;fontSize=12;exitX=0.457;exitY=-0.005;exitDx=0;exitDy=0;exitPerimeter=0;entryX=-0.014;entryY=0.012;entryDx=0;entryDy=0;entryPerimeter=0;" edge="1" parent="1" target="2fEYxKYu0VI1hJ5wH61g-4">
          <mxGeometry width="160" relative="1" as="geometry">
            <mxPoint x="274.3599999999999" y="439.99999999999994" as="sourcePoint" />
            <mxPoint x="80" y="245.67799999999994" as="targetPoint" />
          </mxGeometry>
        </mxCell>
      </root>
    </mxGraphModel>
  </diagram>
</mxfile>
